<svg width="25.915245" height="23.906677" viewBox="0 0 25.9152 23.9067" fill="none" xmlns="http://www.w3.org/2000/svg" xmlns:xlink="http://www.w3.org/1999/xlink">
	<desc>
			Created with Pixso.
	</desc>
	<defs/>
	<path id="Vector" d="M21.2562 21.9122C21.3011 21.9009 21.3224 21.8799 21.34 21.859C21.3478 21.8499 21.3556 21.8408 21.3634 21.8318C21.3998 21.7902 21.4031 21.7019 21.4022 21.6572C21.3891 21.5514 21.2986 21.4788 21.2215 21.4788C21.2178 21.4788 21.214 21.4789 21.2116 21.479C21.1337 21.4843 21.0462 21.5878 21.0527 21.709C21.0621 21.8256 21.148 21.9122 21.2196 21.9122L21.2562 21.9122ZM7.63772 21.9059C7.73663 21.9059 7.81703 21.8118 7.81703 21.6962C7.81703 21.581 7.73663 21.4872 7.63772 21.4872C7.53888 21.4872 7.45841 21.581 7.45841 21.6962C7.45841 21.8118 7.53888 21.9059 7.63772 21.9059ZM21.3793 23.9067C21.3318 23.9067 21.268 23.9067 21.2196 23.9067C20.0852 23.9067 19.1428 22.9974 19.0629 21.8442C18.983 20.6425 19.8778 19.5709 21.076 19.4892C21.1247 19.4859 21.1733 19.4843 21.2215 19.4843C22.3571 19.4843 23.3158 20.3827 23.3933 21.5355C23.4247 22.1368 23.2488 22.705 22.8656 23.1438C22.4824 23.5988 21.9547 23.8582 21.3793 23.9067ZM7.63772 23.9003C6.43684 23.9003 5.46397 22.9141 5.46397 21.6962C5.46397 20.4791 6.43684 19.4928 7.63772 19.4928C8.83854 19.4928 9.81148 20.4791 9.81148 21.6962C9.81148 22.9141 8.83854 23.9003 7.63772 23.9003ZM20.5806 17.0533L8.5487 17.0533C8.11698 17.0533 7.73377 16.7608 7.62153 16.339L3.70665 1.94928L0.958511 1.94928C0.43166 1.94928 0 1.51141 0 0.974731C0 0.438843 0.43166 0 0.958511 0L4.42645 0C4.85726 0 5.24047 0.292542 5.35264 0.715271L9.26758 15.1041L19.9415 15.1041L23.4885 6.82184L11.6648 6.82184C11.1371 6.82184 10.7053 6.383 10.7053 5.84723C10.7053 5.3114 11.1371 4.87256 11.6648 4.87256L24.9586 4.87256C25.2781 4.87256 25.5823 5.03491 25.7574 5.3114C25.9333 5.58685 25.9656 5.92792 25.8372 6.23663L21.4592 16.4681C21.2994 16.8254 20.9638 17.0533 20.5806 17.0533Z" fill="#FFFFFF" fill-opacity="1.000000" fill-rule="nonzero"/>
</svg>
